<?xml version="1.0" standalone="no"?>
<!DOCTYPE svg PUBLIC "-//W3C//DTD SVG 20010904//EN"
 "http://www.w3.org/TR/2001/REC-SVG-20010904/DTD/svg10.dtd">
<svg version="1.0" xmlns="http://www.w3.org/2000/svg"
 width="778.000000pt" height="798.000000pt" viewBox="0 0 778.000000 798.000000"
 preserveAspectRatio="xMidYMid meet">

<g transform="translate(0.000000,798.000000) scale(0.100000,-0.100000)"
fill="#000000" stroke="none">
<path d="M1490 4200 l0 -3120 -550 0 -550 0 0 -370 0 -370 3450 0 3450 0 0
370 0 370 -2615 0 -2615 0 0 2910 0 2910 1180 0 1180 0 0 -360 0 -360 -73 -72
c-43 -43 -86 -98 -105 -134 -81 -156 -81 -343 0 -498 41 -78 146 -183 224
-224 210 -110 455 -71 624 98 136 135 188 315 145 499 -22 93 -71 177 -145
251 -114 114 -251 167 -405 157 -44 -3 -90 -9 -102 -13 l-23 -6 0 331 0 331
875 0 875 0 0 210 0 210 -2410 0 -2410 0 0 -3120z"/>
</g>
</svg>
