<?xml version="1.0" standalone="no"?>
<!DOCTYPE svg PUBLIC "-//W3C//DTD SVG 20010904//EN"
 "http://www.w3.org/TR/2001/REC-SVG-20010904/DTD/svg10.dtd">
<svg version="1.0" xmlns="http://www.w3.org/2000/svg"
 width="778.000000pt" height="798.000000pt" viewBox="0 0 778.000000 798.000000"
 preserveAspectRatio="xMidYMid meet">

<g transform="translate(0.000000,798.000000) scale(0.100000,-0.100000)"
fill="#000000" stroke="none">
<path d="M1490 4200 l0 -3120 -550 0 -550 0 0 -370 0 -370 3450 0 3450 0 0
370 0 370 -2615 0 -2615 0 0 2910 0 2910 1180 0 1180 0 0 -360 0 -360 -73 -72
c-82 -82 -129 -162 -152 -259 -36 -156 -6 -305 91 -442 19 -26 34 -49 34 -51
0 -2 -23 -21 -51 -42 -149 -109 -272 -343 -329 -624 -15 -76 -72 -242 -206
-600 -101 -273 -184 -500 -184 -505 0 -6 32 -22 70 -37 64 -23 71 -24 79 -9 4
9 57 148 116 309 l109 293 18 -93 c68 -336 222 -576 434 -676 51 -23 72 -27
149 -27 77 0 98 4 149 27 138 65 235 169 321 343 84 169 128 345 143 570 l7
108 174 -316 174 -317 66 36 c36 20 68 38 70 40 3 3 -510 942 -538 984 -9 14
-28 54 -40 90 -30 83 -79 180 -125 249 -20 30 -35 55 -34 56 2 1 32 17 68 36
82 42 185 144 228 225 110 210 71 455 -98 624 -114 114 -251 167 -405 157 -44
-3 -90 -9 -102 -13 l-23 -6 0 331 0 331 875 0 875 0 0 210 0 210 -2410 0
-2410 0 0 -3120z"/>
</g>
</svg>
