<?xml version="1.0" standalone="no"?>
<!DOCTYPE svg PUBLIC "-//W3C//DTD SVG 20010904//EN"
 "http://www.w3.org/TR/2001/REC-SVG-20010904/DTD/svg10.dtd">
<svg version="1.0" xmlns="http://www.w3.org/2000/svg"
 width="778.000000pt" height="798.000000pt" viewBox="0 0 778.000000 798.000000"
 preserveAspectRatio="xMidYMid meet">

<g transform="translate(0.000000,798.000000) scale(0.100000,-0.100000)"
fill="#000000" stroke="none">
<path d="M1490 4200 l0 -3120 -550 0 -550 0 0 -370 0 -370 3450 0 3450 0 0
370 0 370 -2615 0 -2615 0 0 2910 0 2910 1180 0 1180 0 0 -360 0 -360 -73 -72
c-82 -82 -129 -162 -152 -259 -36 -156 -6 -305 91 -442 19 -26 34 -49 34 -51
0 -2 -23 -21 -51 -42 -149 -109 -272 -343 -329 -624 -15 -76 -72 -242 -206
-600 -101 -273 -184 -500 -184 -505 0 -6 32 -22 70 -37 64 -23 71 -24 79 -9 4
9 57 148 116 309 l109 293 18 -93 c42 -204 126 -395 231 -519 l57 -69 0 -675
0 -675 80 0 80 0 0 626 0 626 23 -6 c71 -22 180 -17 251 10 15 6 16 -40 16
-550 l0 -556 80 0 80 0 0 611 0 610 50 62 c28 34 75 112 105 172 84 169 128
345 143 570 l7 108 174 -316 174 -317 66 36 c36 20 68 38 70 40 3 3 -510 942
-538 984 -9 14 -28 54 -40 90 -30 83 -79 180 -125 249 -20 30 -35 55 -34 56 2
1 32 17 68 36 82 42 185 144 228 225 110 210 71 455 -98 624 -114 114 -251
167 -405 157 -44 -3 -90 -9 -102 -13 l-23 -6 0 331 0 331 875 0 875 0 0 210 0
210 -2410 0 -2410 0 0 -3120z"/>
<path d="M3250 1626 l0 -226 55 0 55 0 0 74 0 73 79 5 c92 5 138 27 163 78 36
71 13 157 -52 195 -29 17 -57 21 -167 23 l-133 4 0 -226z m230 124 c11 -11 20
-33 20 -50 0 -46 -31 -70 -90 -70 l-50 0 0 70 0 70 50 0 c37 0 55 -5 70 -20z"/>
<path d="M3700 1625 l0 -225 160 0 160 0 0 45 0 45 -105 0 -105 0 0 50 0 50
95 0 95 0 0 45 0 45 -95 0 -95 0 0 40 0 40 100 0 100 0 0 45 0 45 -155 0 -155
0 0 -225z"/>
<path d="M4120 1625 l0 -225 55 0 55 0 0 85 0 85 33 0 c41 0 64 -23 106 -107
l31 -63 60 0 c33 0 60 2 60 5 0 18 -83 164 -104 184 l-26 24 29 18 c54 33 64
127 18 177 -30 32 -77 42 -204 42 l-113 0 0 -225z m214 129 c9 -8 16 -28 16
-44 0 -41 -24 -60 -76 -60 l-44 0 0 60 0 60 44 0 c27 0 51 -6 60 -16z"/>
<path d="M4600 1625 l0 -227 128 4 c173 6 231 32 273 123 38 81 17 207 -42
262 -47 43 -97 56 -231 61 l-128 4 0 -227z m223 121 c56 -23 72 -50 72 -121 0
-49 -4 -68 -20 -85 -27 -31 -76 -50 -125 -50 l-40 0 0 135 0 135 40 0 c22 0
55 -6 73 -14z"/>
<path d="M5112 1671 c3 -205 8 -217 89 -259 37 -20 55 -23 115 -19 85 5 123
25 155 81 22 38 24 55 27 209 l4 167 -61 0 -61 0 0 -160 c0 -157 -1 -161 -25
-185 -25 -26 -63 -32 -95 -15 -31 16 -40 67 -40 216 l0 144 -56 0 -55 0 3
-179z"/>
<path d="M5860 1746 c0 -57 3 -124 6 -150 7 -45 7 -46 44 -46 46 0 47 4 56
178 l7 122 -56 0 -57 0 0 -104z"/>
<path d="M5860 1455 l0 -55 55 0 55 0 0 55 0 55 -55 0 -55 0 0 -55z"/>
</g>
</svg>
